<?xml version="1.0" standalone="no"?><!DOCTYPE svg PUBLIC "-//W3C//DTD SVG 1.1//EN" "http://www.w3.org/Graphics/SVG/1.1/DTD/svg11.dtd"><svg t="1546776738597" class="icon" style="" viewBox="0 0 268 268" version="1.1" xmlns="http://www.w3.org/2000/svg" p-id="2520" xmlns:xlink="http://www.w3.org/1999/xlink" width="200" height="200"><path d="m 128.45782,71.295219 q 0,5.225769 -2.4387,8.012847 -2.43869,2.787077 -4.87738,2.787077 -1.04515,0 -12.19346,-4.877385 -11.148311,-5.22577 -20.554697,-8.361232 -4.877385,-1.741923 -4.877385,-6.967693 0,-11.148308 5.574155,-25.083694 5.574154,-14.28377 10.799924,-14.28377 1.741923,0 3.832233,2.090308 2.43869,2.090307 10.10315,14.28377 7.66446,11.845078 11.14831,19.50954 3.48385,7.664462 3.48385,12.890232 z M 292.89537,46.908294 q 0,2.090308 -2.09031,4.877385 -5.57415,7.664462 -5.22577,26.825617 0.34839,18.812771 0.34839,92.670314 0,73.50916 -0.69677,77.68978 -0.34839,4.529 -0.34839,8.70961 0,4.529 0.69677,9.058 0.69677,4.529 0.69677,5.57416 0,5.92254 -5.22577,5.92254 -4.87738,0 -37.62554,-13.23862 -32.74816,-12.89023 -39.36746,-18.81277 -6.27093,-5.92254 -6.27093,-8.36123 0,-2.78708 3.83223,-2.78708 l 42.85131,2.09031 q 8.36124,0 10.45154,-3.13546 2.09031,-3.48385 2.09031,-14.63216 l 1.04515,-34.49008 q 0,-15.32892 -1.39353,-40.41262 -1.39354,-25.08369 -1.39354,-60.618924 0,-35.535234 -21.25147,-35.535234 -4.87738,0 -16.37407,5.922539 -11.4967,5.922539 -21.59985,9.75477 -9.75477,3.832231 -15.67731,7.316078 -5.57415,3.483846 -8.36123,3.483846 -2.43869,0 -5.22577,-5.574154 -2.78708,-5.922539 -2.78708,-8.361232 0,-4.529 5.57416,-5.574154 12.54184,-2.787077 33.79331,-12.193462 21.25146,-9.75477 45.29,-9.75477 12.89023,0 25.43208,3.135461 12.54185,3.135462 15.67731,5.574155 3.13546,2.438692 3.13546,4.877385 z m -71.41885,39.715849 q 5.22577,0 5.22577,6.270924 0,6.270923 -1.39354,8.709613 -1.39354,2.4387 -4.529,3.48385 -3.13546,1.04515 -18.116,7.31608 -14.63216,5.92254 -21.94824,8.36123 -6.96769,2.09031 -13.23861,2.09031 -6.27093,0 -12.54185,1.04515 -6.27092,1.04515 -8.70962,2.43869 -2.0903,1.04516 -4.18061,1.04516 -2.09031,0 -3.48385,-4.529 -1.39354,-4.529 -1.39354,-7.31608 0,-3.13546 4.18062,-4.529 4.18061,-1.39354 14.98054,-7.31608 10.79992,-5.922538 34.14169,-11.496693 23.69016,-5.574154 31.00624,-5.574154 z m -90.58001,93.715467 q 0,3.83223 -6.96769,24.73531 -6.9677,20.5547 -19.85793,33.44493 -12.890229,13.23861 -16.374076,13.23861 -3.483846,0 -8.012847,-10.79992 -4.529,-10.79992 -4.529,-39.01908 L 75.503352,171.63 q 0,-5.57416 -4.180616,-9.75477 -4.180616,-4.18062 -9.058001,-4.18062 -4.529,0 -9.75477,3.13546 -4.877385,3.13546 -11.496693,5.92254 -6.619308,2.78708 -8.012847,2.78708 -1.393538,0 -2.090308,-1.39354 -0.696769,-1.39354 -3.135462,-11.49669 -2.090307,-10.10316 -2.090307,-12.89024 0,-2.78707 2.787077,-2.0903 3.135462,0.69677 5.225769,0.69677 7.316078,0 22.296618,-5.57416 15.328924,-5.57415 22.296617,-8.36123 7.316077,-2.78708 14.28377,-9.75477 1.741923,-1.74192 3.483847,-1.74192 2.090307,0 4.529004,4.87738 2.78707,4.529 6.96769,8.36123 4.18061,3.48385 4.18061,8.70962 0,5.22577 -3.48384,8.36123 -4.529,3.83223 -10.103157,23.34177 -5.574154,19.16116 -5.574154,29.96108 0,10.45154 5.22577,10.45154 3.832231,0 10.799921,-6.27092 6.9677,-6.27093 17.76762,-23.69016 1.74192,-3.13546 3.13546,-3.13546 1.39354,0 1.39354,2.43869 z m 107.65085,-34.14169 q 0,2.43869 -4.18061,8.36123 -3.83223,5.57415 -6.27092,12.19346 -2.4387,6.61931 -6.9677,11.84508 -3.48384,4.18061 -3.48384,16.37408 0,2.78707 -1.74193,5.22577 -1.39354,2.43869 -6.27092,2.43869 l -2.43869,0 q -6.27093,0 -26.12885,3.48385 -19.50954,3.48384 -22.645,5.22577 -3.13547,1.39353 -4.87739,1.39353 -1.39354,0 -2.43869,-1.04515 -0.69677,-1.04515 -5.57416,-9.058 -4.529,-8.36123 -8.36123,-16.72246 -3.83223,-8.70962 -4.87738,-12.54185 -0.69677,-4.18062 -2.43869,-6.96769 -1.74193,-2.78708 -1.74193,-3.83223 0,-2.78708 9.40639,-9.75477 9.75477,-6.9677 31.00623,-14.63216 21.25146,-7.66446 32.74816,-7.66446 11.49669,0 21.94823,4.87738 10.79992,4.529 12.89023,6.61931 2.43869,1.74192 2.43869,4.18062 z m -71.07046,35.53523 q 6.96769,0 16.02569,-3.13546 9.40639,-3.48385 11.14831,-6.61931 2.09031,-3.48385 2.09031,-9.40638 0,-8.70962 -8.70962,-8.70962 -5.22577,0 -16.72246,5.22577 -11.49669,4.87738 -11.49669,11.14831 0,2.43869 1.74192,6.96769 1.74192,4.529 5.92254,4.529 z" id="path8091" /></svg>